<?xml version='1.0' encoding='utf-8'?>
<svg xmlns="http://www.w3.org/2000/svg" viewBox="0 0 78.669998 151.78999" id="svg2" height="151.78999mm" width="78.669998mm" version="1.0"> <metadata id="metadata16"> </metadata> <defs id="defs4"> <clipPath id="clipEmfPath1" clipPathUnits="userSpaceOnUse"> <path id="path7" d="m 1.0493,-0.299799 278.9637,0 0,537.839799 -278.9637,0 z"/> </clipPath> <pattern y="0" x="0" height="6" width="6" patternUnits="userSpaceOnUse" id="EMFhbasepattern"/> </defs> <path transform="matrix(0.28222222,0,0,0.28222222,0,-6.1820333e-6)" id="path10" d="m 203.02,173.134 c -8.825,8.807 -17.65,15.758 -29.286,22.241 -3.279,8.207 -7.252,14.522 -8.901,24.828 9.463,4.29 14.915,9.537 24.134,14.296 15.309,-9.687 29.68,-16.564 44.502,-31.853 -3.148,-2.549 -0.544,-1.874 -7.964,-4.46 -7.888,-2.099 -16.938,-12.929 -22.485,-25.052 z M 72.6076,0.262324 c 2.3422,0.1499 4.5345,0.955606 6.1459,2.360916 l 14.634,16.32036 c 6.4644,1.9861 9.5375,4.6281 12.9105,8.0196 3.354,3.3915 6.202,8.5068 7.232,12.3667 l 8.788,5.5463 c 1.256,-5.3964 -1.705,-9.8372 -2.567,-14.7464 l 8.75,9.4437 c 0,2.8481 0,5.6775 0.019,8.5068 l 6.221,-4.3658 3.185,-15.1586 c 10.343,-16.133 22.916,-13.4722 30.767,-11.8983 7.833,1.5552 17.688,12.629 16.302,21.3232 0.243,7.4388 -0.45,10.9052 -2.792,17.4071 0.206,2.5483 2.998,3.6913 4.366,5.3027 l 0.918,-6.4269 c 4.291,-1.8363 7.645,-2.0424 12.854,-5.5088 -2.192,7.8884 -6.746,9.2001 -10.118,13.8095 l -5.472,6.8017 c -1.63,3.8411 -3.279,4.4033 -6.558,6.6143 l -0.787,3.7287 15.609,10.1183 c 5.864,5.0966 8.9,9.9683 10.998,19.7496 3.842,-0.338 6.727,1.667 10.1,2.51 3.616,2.436 4.89,4.891 7.345,7.346 l 8.244,8.712 c 5.416,5.397 8.47,11.73 8.732,20.63 6.914,3.429 12.423,8.039 16.283,13.341 4.478,4.404 7.326,9.276 7.12,16.958 l 7.345,11.936 5.734,6.445 c 2.417,3.485 2.717,8.62 1.611,13.754 1.406,4.197 5.153,9.574 0.712,14.015 l -25.014,12.854 -41.785,14.428 c -11.336,4.291 -14.015,10.68 -21.379,12.854 l -11.449,-2.998 c -4.515,0.806 -5.059,2.286 -12.142,-1.593 -0.824,14.316 -4.927,27.001 -16.526,39.461 -4.422,5.659 -3.466,13.435 -13.285,16.995 -5.471,1.499 -7.663,-2.155 -11.505,-3.223 4.198,11.336 -1.911,29.699 -7.082,43.153 l 2.492,20.18 c 1.836,6.408 2.979,9.088 4.103,19.73 -0.093,7.87 -2.548,11.037 -5.228,16.789 0.075,6.839 -1.255,28.406 0.937,36.876 l 3.86,6.445 c 1.031,6.052 0.9,12.348 -1.836,18.176 l 4.591,33.221 c 3.185,4.441 4.721,6.764 3.223,11.917 -3.711,6.127 -0.188,12.742 -15.159,16.527 -5.64,-2.043 -14.3343,-10.868 -17.632,-20.181 -1.2929,-14.053 1.3865,-29.511 5.715,-44.97 -0.6,-3.073 -2.8295,-5.658 -3.1855,-9.181 -0.5059,-4.816 1.3305,-10.099 1.9865,-15.14 -6.521,-17.819 -17.0139,-32.603 -24.4714,-52.521 -2.8107,-16.732 -1.1618,-33.446 7.9821,-45.007 -3.4664,-6.952 -5.0591,-12.967 -5.4901,-20.874 -8.0571,-14.69 -15.4396,-32.903 -17.1822,-53.683 -2.6982,-19.262 7.0265,-41.803 16.7325,-60.372 0.6184,-14.072 2.1736,-27.207 0.6746,-41.503 -4.3096,-5.49 -7.2327,-10.755 -7.3264,-19.281 0.6184,-25.089 8.0384,-41.522 12.1794,-62.3958 -1.4053,-6.3894 0.2436,-11.13 0.712,-16.5826 -5.4526,-9.9121 -17.4633,-15.3835 -17.7444,-31.3853 -7.1764,4.3097 -15.7394,6.9891 -24.546,7.57 -4.1972,2.9605 -9.1252,7.3076 -12.6291,12.3854 l 4.3846,10.5492 c 6.2396,0.3186 1.2367,7.6636 1.855,11.4861 -3.5414,1.9487 -5.6774,1.068 -8.5255,1.6114 -2.717,3.0167 -5.4526,1.5739 -9.1252,1.5552 -3.1104,2.0986 -6.4644,1.1243 -9.59356,1.1055 C 6.93286,86.5296 6.68927,88.7031 5.49007,85.0306 2.86683,82.8196 2.81062,80.3837 2.97926,76.5238 1.499,74.8561 0.95561,70.8463 2.52956,68.017 0,65.0377 5.88356,61.1216 7.56993,57.6739 8.90029,51.8278 14.4466,49.7105 17.8943,45.7194 26.7196,38.1869 30.8606,27.6003 40.1356,18.8874 43.5271,15.3272 47.1434,16.4702 50.741,13.135 L 65.5998,1.92996 c 2.1923,-1.292886 4.6657,-1.817535 7.0078,-1.667636 z" clip-path="url(#clipEmfPath1)" style="fill:#000000;fill-opacity:1;fill-rule:evenodd;stroke:none"/> <path id="path12" d="m 45.414353,28.069364 -8.45312,10.668734 2.075745,-0.491631 -3.278576,4.894016 1.919394,-0.460023 -3.854874,7.387449 10.018325,-11.401213 -2.112716,0.433776 2.699738,-4.484512 -1.848273,0.32004 2.834357,-6.866636 z" style="fill:#ffff00;fill-opacity:1;fill-rule:evenodd;stroke:none"/> </svg>