<?xml version='1.0' encoding='utf-8'?>
<svg xmlns="http://www.w3.org/2000/svg" viewBox="0 0 69.879997 163.25999" id="svg2" height="163.25999mm" width="69.879997mm" version="1.0"> <metadata id="metadata16"> </metadata> <defs id="defs4"> <clipPath id="clipEmfPath1" clipPathUnits="userSpaceOnUse"> <path id="path7" d="m -0.449699,2.0986 247.783699,0 0,578.4624 -247.783699,0 z"/> </clipPath> <pattern y="0" x="0" height="6" width="6" patternUnits="userSpaceOnUse" id="EMFhbasepattern"/> </defs> <path transform="matrix(0.28222222,0,0,0.28222222,-1.5455082e-6,0)" id="path10" d="M 156.907,38.6366 C 158.444,20.7611 151.661,-0.0749498 123.78,2.73567 92.1883,8.24448 97.3598,33.2402 100.808,45.4945 c -2.3614,4.497 -0.675,6.1459 -0.15,10.493 0.524,3.0355 0.899,6.6706 3.335,7.7199 l 6.333,14.2779 -4.909,12.7789 c -43.8082,0.3373 -56.1375,27.7688 -57.0744,51.1908 -5.5088,5.134 -9.631,10.568 -12.4416,20.349 -6.071,-1.799 -8.7692,-7.008 -13.1537,-10.493 -0.8245,-3.71 8.2819,-7.982 9.9308,-12.067 1.6489,-4.122 1.3866,-6.071 -0.0749,-12.554 -8.8816,-4.984 -17.3884,-4.272 -26.56974,-3.935 -3.33527,2.511 -4.64689,3.373 -5.9585102,7.532 L 3.03547,159.681 c 12.47913,17.463 12.81643,37.175 34.32703,46.019 11.8046,0.824 31.3665,-35.302 36.538,-41.11 6.6706,16.077 3.9724,33.465 5.9211,50.216 -1.6489,20.237 -1.3117,40.81 -4.9467,60.71 -7.57,34.064 -17.8006,79.859 11.4673,144.39 -4.6094,28.819 15.8898,84.806 6.8954,120.67 -3.7475,11.13 -4.1223,32.828 6.7455,32.528 8.2069,-1.986 13.5659,-25.483 16.2639,-38.449 19.412,-43.246 1.649,-32.604 -0.037,-39.387 -2.024,-30.429 14.727,-56.474 0.974,-85.217 0.974,-31.629 7.308,-64.27 5.921,-94.887 l 5.921,-1.949 c -1.349,12.742 -2.736,29.531 3.935,45.27 -1.611,28.406 2.136,36.688 5.209,60.035 -8.507,22.56 3.747,43.433 4.272,79.746 -3.56,11.131 -13.791,-1.536 -1.611,36.389 3.897,12.254 -4.235,42.946 13.753,45.157 2.361,1.536 18.812,-13.678 10.156,-40.585 l -2.586,-42.947 c 8.095,-27.244 10.493,-49.129 8.507,-79.709 -0.787,-6.933 1.124,-10.493 1.649,-15.777 19.074,-44.295 10.343,-97.997 3.597,-126.89 0.15,-18.4 -8.057,-23.047 -4.572,-55.163 3.223,-19.749 13.829,-32.453 17.726,-51.191 4.572,9.182 7.832,20.724 13.753,27.544 -2.511,20.949 14.728,50.217 25.596,74.8 l -0.975,4.947 c -4.609,3.148 -18.25,19.15 -11.505,23.309 3.186,0.937 2.249,0.975 3.823,2.849 2.848,11.991 21.361,8.207 26.007,-2.849 1.35,-10.755 1.05,-17.8 -1.948,-31.179 -6.633,-31.329 -6.858,-60.334 -10.793,-69.89 -4.46,-8.32 -5.246,-27.357 -16.414,-56.1 -4.947,-37.813 -30.617,-41.1104 -61.009,-53.1398 l -5.921,-5.8836 c -0.675,-8.6941 1.012,-14.9899 1.012,-21.9977 4.422,-1.1992 5.846,-0.7495 5.546,-8.3195 1.724,-7.5699 3.223,-4.1972 0.674,-13.0038 z" clip-path="url(#clipEmfPath1)" style="fill:#000000;fill-opacity:1;fill-rule:evenodd;stroke:none"/> <path id="path12" d="m 34.827632,38.412984 c -1.713371,0 -3.0988,1.385429 -3.0988,3.0988 0,1.702647 1.385429,3.0988 3.0988,3.0988 1.713371,0 3.0988,-1.396153 3.0988,-3.0988 0,-1.713371 -1.385429,-3.0988 -3.0988,-3.0988 z m -4.90728,-2.633415 9.909951,0 -0.96266,2.072922 -1.607538,0 0.01072,0 c 1.16332,0.793045 1.924755,2.125698 1.924755,3.627685 0,1.512428 -0.761435,2.8448 -1.924755,3.627684 l -0.02117,0.02088 1.586371,0 0.962378,2.06248 -9.909951,0 0.962377,-2.06248 1.554763,0 -0.03161,-0.02088 c -1.163602,-0.782884 -1.925038,-2.115256 -1.925038,-3.627684 0,-1.501987 0.761436,-2.83464 1.925038,-3.627685 l 0.01044,0 -1.501704,0 z m 4.886113,-2.686473 c -4.632395,0 -8.386995,3.754684 -8.386995,8.38708 0,4.632395 3.7546,8.386797 8.386995,8.386797 4.632396,0 8.38708,-3.754402 8.38708,-8.386797 0,-4.632396 -3.754684,-8.38708 -8.38708,-8.38708 z M 34.795741,31.496 c 5.520831,0 9.984175,4.473787 9.984175,9.984176 0,5.520831 -4.463344,9.983893 -9.984175,9.983893 -5.510107,0 -9.983865,-4.463062 -9.983865,-9.983893 0,-5.510389 4.473758,-9.984176 9.983865,-9.984176 z" style="fill:#3ab54a;fill-opacity:1;fill-rule:evenodd;stroke:none"/> </svg>