<?xml version='1.0' encoding='utf-8'?>
<svg xmlns="http://www.w3.org/2000/svg" viewBox="0 0 85.480003 163.3" id="svg2" height="163.3mm" width="85.480003mm" version="1.0"> <metadata id="metadata16"> </metadata> <defs id="defs4"> <clipPath id="clipEmfPath1" clipPathUnits="userSpaceOnUse"> <path id="path7" d="m 0,1.6489 303.097,0 0,578.6131 -303.097,0 z"/> </clipPath> <pattern y="0" x="0" height="6" width="6" patternUnits="userSpaceOnUse" id="EMFhbasepattern"/> </defs> <path transform="matrix(0.28222222,0,0,0.28222222,0,-6.1820329e-6)" id="path10" d="m 124.379,168.862 c -4.309,-4.085 -7.382,-14.953 -12.854,-12.254 -2.173,0.862 -2.735,-2.474 -5.846,0.262 -2.098,0.675 -4.234,-0.3 -6.333,1.986 -3.1854,0.113 -5.2465,3.973 -6.0709,5.509 l -3.7101,6.933 c -1.3116,3.522 -2.0986,9.518 -3.5601,14.84 -1.4615,5.321 -4.3471,11.879 -5.1715,17.088 -0.8245,5.247 -0.9744,10.531 -1.1617,15.215 -0.1874,4.685 1.8737,9.444 2.0986,13.379 0.2248,3.897 -1.2742,7.907 -0.787,10.193 1.1992,1.199 1.2367,3.822 2.4359,5.022 l 5.8086,3.222 c -0.2998,1.724 -3.3728,1.237 -9.1064,5.884 -5.6962,4.684 -16.414,14.166 -25.2956,22.035 -7.7198,9.144 -18.7375,17.314 -26.4573,26.458 -9.2563,14.615 -22.29756,26.644 -27.843851,43.845 1.948691,7.945 -0.5621239,12.854 1.386571,20.799 0.5996,2.023 3.11042,3.822 3.74749,5.846 1.87375,5.396 1.87375,19.449 3.74749,24.846 l 7.0078,5.996 c 4.2347,-7.645 7.2701,-17.838 11.5048,-25.446 l 19.3371,-28.331 c 10.5679,1.012 9.8933,7.42 10.6428,13.116 -0.3372,3.823 -2.5108,8.807 -2.8106,12.63 -0.4497,4.384 2.9605,5.171 3.0355,9.593 0.0749,4.46 -5.3964,10.231 -5.209,14.54 0.1874,4.272 5.6962,6.484 8.0196,10.756 2.3235,4.309 2.1361,10.38 5.8461,14.99 3.71,4.609 9.1439,8.357 15.4771,13.116 15.9269,7.12 15.8519,4.384 20.8356,9.369 5.397,2.585 4.385,5.808 8.92,8.656 4.497,2.848 11.167,2.811 15.926,6.334 4.76,3.522 10.381,9.743 13.341,13.603 2.961,3.822 3.71,7.757 6.783,11.467 3.111,3.71 6.446,8.619 11.018,11.917 4.572,3.336 10.643,3.148 16.601,9.182 0.375,6.633 2.211,9.293 2.624,15.889 l -2.136,31.666 9.481,17.164 c 3.822,0.712 3.223,5.396 11.505,2.136 3.372,-5.022 4.609,-4.385 10.08,-15.028 0.975,-10.98 -1.574,-21.21 -1.761,-33.352 -0.375,-15.515 4.459,-15.103 6.67,-22.635 l 8.882,-3.373 c 5.584,3.148 0.15,-10.83 3.635,-6.296 l 17.351,11.505 c -1.012,15.29 -3.448,7.608 0.937,15.402 27.694,16.714 50.741,-1.723 59.473,-8.694 -2.324,-29.305 -12.629,-75.699 -16.864,-86.492 -5.209,-15.365 -34.889,-91.739 -52.128,-140.231 0.6,-3.11 -1.874,-5.022 -1.274,-8.132 1.349,-6.109 -0.375,-12.667 0.937,-18.738 2.886,-10.155 8.357,-22.41 7.495,-30.692 8.432,-13.003 10.53,-25.333 8.882,-40.472 2.136,-14.578 7.607,-23.984 11.429,-36.014 2.436,-14.353 1.424,-37.999 2.436,-49.504 0.975,-11.4675 4.422,-9.7062 3.56,-19.4496 L 258.165,47.2559 C 254.192,33.4276 262.212,32.7156 249.958,10.493 247.522,3.03547 247.634,8.05711 243.025,4.68436 240.776,1.499 239.764,2.0986 238.041,2.51082 236.354,3.37274 234.705,0 233.056,5.05911 c -5.696,0.2998 -0.712,7.86969 -1.836,11.76709 -3.223,-3.1479 -2.96,5.5088 -4.834,10.4181 3.11,17.2759 8.507,15.7769 12.779,23.6841 -0.113,15.1399 -1.162,18.8124 -5.959,37.0252 -1.461,8.8441 2.549,10.1182 1.537,16.4514 0.412,10.98 -10.98,16.939 -9.706,38.075 -10.493,7.382 -8.657,18.55 -19.637,21.585 -2.698,-11.842 1.836,-12.479 3.335,-18.737 -1.049,-7.046 2.324,-21.811 -3.747,-27.357 -3.111,-5.509 -3.71,-8.244 -13.978,-10.006 -6.821,0.113 -13.941,1.537 -18.101,5.434 -4.197,3.897 -5.846,12.254 -6.933,17.951 2.811,14.165 -3.522,15.739 4.198,21.473 l 0.674,15.477 -26.157,6.783 c -7.308,2.511 -13.791,4.422 -16.302,7.307 -4.609,3.336 -4.759,5.06 -5.846,7.271 l -2.811,7.232 c -2.173,1.274 -5.096,0.412 -7.27,1.649 l -5.996,5.396 c -0.187,-2.585 -2.023,-3.297 -2.211,-5.846 0.562,-2.735 0.412,-7.12 0.937,-9.856 l 1.424,-6.22 c 2.399,-0.562 5.322,0 7.72,-0.562 l 5.621,-3.148 4.422,-9.444 z" clip-path="url(#clipEmfPath1)" style="fill:#000000;fill-opacity:1;fill-rule:evenodd;stroke:none"/> <path id="path12" d="m 49.851169,67.503034 2.591082,2.977162 2.570198,-2.961358 c -1.475458,0.364914 -3.188829,0.438856 -5.16128,-0.0158 z m -3.738598,-4.304736 1.80848,2.078285 c 0.486551,-0.45466 0.946573,-0.438856 1.766147,-0.444218 0.724464,0.04233 1.649871,-0.105833 2.469726,1.211015 1.581009,0.03189 3.585352,0.148167 4.426092,-0.512797 0.502355,-0.460305 0.814211,-0.851465 0.592102,-1.089378 -0.803769,-0.798689 -7.223478,-0.803769 -11.062547,-1.242907 z m 10.211365,-6.451318 0.750711,0.935849 c 0.254,-0.274884 0.460304,-0.496993 0.333304,-0.935849 l -1.084015,0 z m -5.67436,0 c -0.867269,0.163972 -1.385429,0.137443 -2.284307,0.740269 -0.782602,0.544689 -0.994269,1.443567 0.06858,2.19456 2.38506,0.999349 5.235222,0.253718 7.874,0.77216 2.046675,0.597465 2.622973,1.258429 3.15722,1.94056 l 2.638778,-3.0353 -1.850814,-1.845451 -0.0054,2.009422 -3.849793,0.0054 C 56.614624,58.486598 55.128724,57.06956 53.780267,56.820923 53.066244,56.61998 51.69154,56.598814 50.649576,56.74698 Z m -5.256389,0 -2.612249,2.612249 1.258711,1.448929 c 0.90424,-2.459002 1.316567,-2.723444 2.792024,-4.061178 l -1.438486,0 z m -0.560494,-1.359182 15.219398,0 3.870678,3.955627 -11.480518,13.198969 -11.517489,-13.241302 3.907931,-3.913294 z" style="fill:#ff0000;fill-opacity:1;fill-rule:evenodd;stroke:none"/> </svg>